<svg xmlns="http://www.w3.org/2000/svg" xmlns:xlink="http://www.w3.org/1999/xlink" version="1.1" width="512px" height="512px" style="shape-rendering:geometricPrecision; text-rendering:geometricPrecision; image-rendering:optimizeQuality; fill-rule:evenodd; clip-rule:evenodd">
<g><path style="opacity:0.989" fill="#24d8f7" d="M 490.5,-0.5 C 494.5,-0.5 498.5,-0.5 502.5,-0.5C 504.167,0.833333 505.833,2.16667 507.5,3.5C 506.5,3.83333 505.833,4.5 505.5,5.5C 503.611,6.60398 501.945,7.93731 500.5,9.5C 399.196,84.8242 297.863,160.158 196.5,235.5C 132.21,216.237 68.2105,196.07 4.5,175C 2.44965,173.035 0.782988,170.868 -0.5,168.5C -0.5,164.833 -0.5,161.167 -0.5,157.5C 3.08786,150.875 8.75453,147.042 16.5,146C 174.711,97.4538 332.711,48.6204 490.5,-0.5 Z"/></g>
<g><path style="opacity:1" fill="#00c0f1" d="M 507.5,3.5 C 508.833,5.16667 510.167,6.83333 511.5,8.5C 511.5,12.5 511.5,16.5 511.5,20.5C 462.38,178.289 413.546,336.289 365,494.5C 363.6,502.011 359.767,507.678 353.5,511.5C 349.833,511.5 346.167,511.5 342.5,511.5C 337.793,509.285 334.627,505.618 333,500.5C 313.524,438.573 294.357,376.573 275.5,314.5C 350.476,213.852 425.476,113.185 500.5,12.5C 502.547,10.4504 504.214,8.11703 505.5,5.5C 505.833,4.5 506.5,3.83333 507.5,3.5 Z"/></g>
<g><path style="opacity:1" fill="#04a2f5" d="M 505.5,5.5 C 504.214,8.11703 502.547,10.4504 500.5,12.5C 500.5,12.1667 500.5,11.8333 500.5,11.5C 500.5,10.8333 500.5,10.1667 500.5,9.5C 501.945,7.93731 503.611,6.60398 505.5,5.5 Z"/></g>
<g><path style="opacity:0.995" fill="#00aae9" d="M 500.5,9.5 C 500.5,10.1667 500.5,10.8333 500.5,11.5C 388.452,122.881 276.785,234.548 165.5,346.5C 160.945,342.13 159.445,336.797 161,330.5C 172.547,298.689 184.38,267.022 196.5,235.5C 297.863,160.158 399.196,84.8242 500.5,9.5 Z"/></g>
<g><path style="opacity:1" fill="#0095fe" d="M 500.5,11.5 C 500.5,11.8333 500.5,12.1667 500.5,12.5C 425.476,113.185 350.476,213.852 275.5,314.5C 242.39,327.092 209.057,339.092 175.5,350.5C 171.728,350.134 168.394,348.801 165.5,346.5C 276.785,234.548 388.452,122.881 500.5,11.5 Z"/></g>
<g><path style="opacity:0.941" fill="#25d9f8" d="M 104.5,301.5 C 118.983,300.482 125.483,307.149 124,321.5C 123.439,323.725 122.439,325.725 121,327.5C 90.8333,357.667 60.6667,387.833 30.5,418C 22.2562,424.267 14.4228,423.767 7,416.5C 2.41956,408.722 3.08623,401.388 9,394.5C 38.5,365 68,335.5 97.5,306C 99.8981,304.476 102.231,302.976 104.5,301.5 Z"/></g>
<g><path style="opacity:0.938" fill="#24d8f7" d="M 130.5,381.5 C 88.1397,423.527 45.8064,465.527 3.5,507.5C 2.16667,505.833 0.833333,504.167 -0.5,502.5C -0.5,498.5 -0.5,494.5 -0.5,490.5C 35.9374,452.229 73.2707,414.729 111.5,378C 116.833,376 122.167,376 127.5,378C 128.71,379.039 129.71,380.206 130.5,381.5 Z"/></g>
<g><path style="opacity:1" fill="#01c0f1" d="M 130.5,381.5 C 133.67,384.161 135.004,387.661 134.5,392C 134.896,396.037 133.729,399.537 131,402.5C 94.5769,439.424 57.7436,475.758 20.5,511.5C 16.5,511.5 12.5,511.5 8.5,511.5C 6.83333,510.167 5.16667,508.833 3.5,507.5C 45.8064,465.527 88.1397,423.527 130.5,381.5 Z"/></g>
<g><path style="opacity:0.959" fill="#00c0f1" d="M 188.5,386.5 C 206.269,385.755 212.436,393.755 207,410.5C 175.5,442 144,473.5 112.5,505C 99.4174,509.624 91.4174,505.124 88.5,491.5C 88.9693,487.926 90.1359,484.592 92,481.5C 123.757,449.242 155.923,417.575 188.5,386.5 Z"/></g>
</svg>